<svg xmlns="http://www.w3.org/2000/svg" width="315.177" height="276.787" viewBox="0 0 315.177 276.787">
  <g id="Grupo_73" data-name="Grupo 73" transform="translate(-1242.5 -3265)">
    <g id="Grupo_72" data-name="Grupo 72" transform="translate(1242.5 3265)">
      <g id="Grupo_61" data-name="Grupo 61" transform="translate(42.358 40.581)">
        <path id="Trazado_47" data-name="Trazado 47" d="M94.569,27.062c8.788.119,17.126,2.437,25.283,5.424a70.706,70.706,0,0,1,25.82,16.269,67.126,67.126,0,0,1,18.149,33.674A109.884,109.884,0,0,1,166,117.207c-1.681,17.369-5.123,34.275-11.427,50.551a149.9,149.9,0,0,1-23.907,40.372,182.14,182.14,0,0,1-25.985,25.886,8.8,8.8,0,0,1-3.665,2.221,6.1,6.1,0,0,1-.189-.986q-1.264-40.162-2.507-80.325-.887-29.12-1.7-58.244Q95.6,61.872,94.569,27.062Z" transform="translate(80.21 -26.646)" fill="#cae5f6"/>
        <path id="Trazado_48" data-name="Trazado 48" d="M81.66,98.945c-1.209-9.12-.09-18.342-1.2-27.465-.145-1.2.494-1.492,1.439-2.032,3-1.72,4.072-4.523,3.585-7.9-.392-2.711-1.468-4.922-4.508-5.487.218-6.005.935-11.993.7-18.02C91.027,29,102.739,27.127,115.045,27.062c.385,11.259.809,22.516,1.151,33.776q.756,24.934,1.422,49.87c-7.485-3.658-15.61-5.492-23.442-8.154C90.075,101.159,86.073,99.3,81.66,98.945Z" transform="translate(60.109 -26.646)" fill="#cae5f6"/>
        <path id="Trazado_49" data-name="Trazado 49" d="M109.31,84.415c1.122,6.354.593,12.788.858,19.181.7,16.976,1.129,33.962,1.667,50.943-6.7,4.578-13.859,8.377-20.956,12.277-1.112.61-2.212,1.359-3.6,1.066,2.745-9.208,5.6-18.384,8.214-27.628a366.147,366.147,0,0,0,9.869-45.43C105.921,91.074,107.738,87.787,109.31,84.415Z" transform="translate(69.837 54.933)" fill="#cae5f6"/>
        <path id="Trazado_50" data-name="Trazado 50" d="M86.118,184.638c-6.49-1.475-11.967-5.126-17.437-8.575-17.965-11.339-32.3-26.133-41.905-45.282-2.018-4.021-2.97-8.372-4.358-12.592V111.1c1.744-6.056,3.808-11.877,7.975-16.877A66.841,66.841,0,0,1,57.187,74.98l7.141,18.679c-1.543.206-3.651-.686-3.946,1.972-.264,2.374,1.749,2.263,3.142,2.788,1.083.409,2.192.753,3.29,1.124,1.163,3.786,1.9,7.892,6.686,8.968-.727,3.34-1.407,6.688-2.192,10.014-.942,4,.7,6.86,3.844,9.091a45.061,45.061,0,0,0,16.736,6.977l7.829,1.151c-.446,5.259-2.374,10.14-3.835,15.145Q90.962,167.752,86.118,184.638Z" transform="translate(-22.418 41.513)" fill="#cae5f6"/>
        <path id="Trazado_51" data-name="Trazado 51" d="M48.714,210.588q4.88-16.875,9.765-33.749c1.461-5,3.389-9.886,3.837-15.147.957.039,1.919.053,2.875.121,11.3.819,22.521.436,33.531-2.476a7.893,7.893,0,0,1,5.567.392c5.111,2.25,10.315,4.159,15.981,4.6,1.977.155,2.248-.414,1.812-2.091-2.476-9.542-4.954-19.084-7.352-28.647a3.413,3.413,0,0,0-3-2.832c-11.6-2.122-22.894-5.567-34.389-8.137-2.749-.613-2.265-2.122-1.64-4.036,1.529-4.687.25-8.59-3.634-11.7a13.342,13.342,0,0,0-5.77-2.677C64.755,98.881,63.127,93.569,61.7,88.2c-.964-3.629-3.156-5.436-6.872-5.47,4.418-7.965,11.175-13.34,19.2-17.281,1.623-.795,3.374-1.33,5.065-1.984a1.136,1.136,0,0,0,1.274-.586h0c1.337.092,2.43-.69,3.646-1.03,3.258-.9,6.245-2.718,9.719-2.914C94.883,71.643,106.82,78.8,117.685,73.206c6.637-3.418,8.994-9.358,9.1-16.47,4.414.354,8.415,2.214,12.517,3.609,7.832,2.662,15.956,4.5,23.442,8.154,3.944,1.737,8.907,9.278,9.106,13.672.639,14.023-3.181,29.67-7.686,41.615-1.572,3.372-3.389,6.659-3.951,10.409a366.156,366.156,0,0,1-9.869,45.43c-2.616,9.244-5.47,18.42-8.214,27.628l.027-.029-.528.761c-29.885,15.751-60.379,16.589-91.419,3.716A7.423,7.423,0,0,1,48.714,210.588ZM116.568,128.6a60.177,60.177,0,0,1,5.964-1.194c5.826-.535,10.487-3.612,14.978-6.909,1.742-1.277,3.1-2.691,5.438-3.253,1.47-.351,5.264-1.327,2.56-4.8-.107-.136.308-.676.475-1.03.891-1.9.385-3.086-1.749-3.481-1-.187-2.088-.09-2.17-1.727-.114-2.321-1.664-2.037-3.248-1.434q-6.155,2.336-12.323,4.639a3.944,3.944,0,0,0-2.367,2C121.4,116.867,119.024,122.473,116.568,128.6Z" transform="translate(14.986 15.562)" fill="#01a03a"/>
        <path id="Trazado_52" data-name="Trazado 52" d="M109.765,87.714c-.1,7.112-2.461,13.052-9.1,16.47-10.864,5.6-22.8-1.562-23.955-14.268.351-3.122-.429-5.4-4.084-5.673a10.659,10.659,0,0,1-2.137-.608c-6.451-2.963-8.539-8.561-8.99-15.079-.431-6.281-.935-12.563-.8-18.868,5.1-.254,9.45-2.451,13.582-5.22a95.754,95.754,0,0,1,13.04-7.524,18.221,18.221,0,0,1,7.369-1.984c1.9-.036,2.888.61,3.219,2.633.55,3.367,1.407,6.686,2.117,10.026a4.273,4.273,0,0,0,2.025,3.125c1.432.78,2.56,1.185,2.527-1.311-.058-4.455.044-4.455,4.5-4.6,3.038.564,4.113,2.776,4.506,5.487.487,3.377-.584,6.18-3.585,7.9-.945.54-1.584.831-1.439,2.032C109.675,69.372,108.556,78.594,109.765,87.714Z" transform="translate(32.004 -15.416)" fill="#faae8c"/>
        <path id="Trazado_53" data-name="Trazado 53" d="M74.111,67.468c3.716.034,5.908,1.841,6.872,5.47,1.424,5.366,3.052,10.678,4.593,16.015a39.971,39.971,0,0,0,1.359,5.9c.746,1.931-.2,2.427-1.65,2.936-3.045,1.061-5.8.911-8.382-1.327-2.425-2.1-5-4.033-7.6-5.911-1.427-1.03-3.016-2.408-4.707-.283-1.766,2.219-.487,3.706,1.206,5.133,1.717,1.449,3.442,2.9,5.077,4.435.9.85,2.369,1.856,1.788,3.113-.724,1.56-2.282.373-3.433.136a34.7,34.7,0,0,1-3.98-1.218c-4.249-1.427-8.474-2.929-12.747-4.283-2.161-.686-4.457-.124-5.177,1.96s1.875,2.149,3.125,2.856c3,1.7,6.412,2.648,9,5.276l-13.255-3.333L39.064,85.665c-1.032-2.9-2.037-5.811-3.1-8.7-2.192-5.979.126-9.435,6.427-9.455C52.966,67.475,63.54,67.48,74.111,67.468Z" transform="translate(-4.295 30.827)" fill="#052c59"/>
        <path id="Trazado_54" data-name="Trazado 54" d="M116.554,38.284c.235,6.027-.482,12.015-.7,18.02-4.455.148-4.557.148-4.5,4.6.034,2.5-1.095,2.091-2.527,1.311a4.273,4.273,0,0,1-2.025-3.125c-.71-3.341-1.567-6.659-2.117-10.026-.332-2.023-1.323-2.669-3.219-2.633A18.221,18.221,0,0,0,94.1,48.417a95.755,95.755,0,0,0-13.04,7.524c-4.133,2.769-8.486,4.966-13.582,5.22-1.565-.329-3.207-.242-4.692-.991-1.17-.589-2.926-1.407-2.783-2.422.514-3.641-2.682-5.3-3.7-8.025-1.109-2.975.262-5.259,3.045-6.545,1.136-.523,1.165-.773.659-1.94-1.575-3.634.305-6.853,4.259-7.638a12.849,12.849,0,0,1,6.64.69A15.4,15.4,0,0,0,84.127,32.8c4.244-2.439,8.568-4.845,13.536-5.7a9.976,9.976,0,0,1,5.063.266c2.919,1.015,5.787,2.183,8.655,3.338C114.78,32.064,115.917,35.014,116.554,38.284Z" transform="translate(25.23 -26.89)" fill="#bf0e0e"/>
        <path id="Trazado_55" data-name="Trazado 55" d="M68.924,55.052a10.658,10.658,0,0,0,2.137.608c3.655.271,4.435,2.551,4.084,5.673-3.474.2-6.461,2.011-9.719,2.914-1.216.339-2.309,1.122-3.646,1.03,1.371-3.263,4.246-5.417,6.121-8.314C68.3,56.346,68.873,55.847,68.924,55.052Z" transform="translate(33.571 13.167)" fill="#cae5f6"/>
        <path id="Trazado_56" data-name="Trazado 56" d="M62.53,59.284a1.136,1.136,0,0,1-1.274.586A1.177,1.177,0,0,1,62.53,59.284Z" transform="translate(32.826 19.16)" fill="#cae5f6"/>
        <path id="Trazado_57" data-name="Trazado 57" d="M87.069,119.62l.528-.761C87.42,119.113,87.243,119.365,87.069,119.62Z" transform="translate(69.542 103.926)" fill="#cae5f6"/>
        <path id="Trazado_58" data-name="Trazado 58" d="M42.05,91.729l13.255,3.333c-2.592-2.628-6-3.58-9-5.276-1.25-.707-3.842-.778-3.125-2.856s3.016-2.645,5.177-1.96c4.273,1.354,8.5,2.856,12.747,4.283a34.7,34.7,0,0,0,3.98,1.218c1.151.237,2.708,1.424,3.433-.136.581-1.257-.887-2.263-1.788-3.113-1.635-1.538-3.36-2.987-5.077-4.435-1.693-1.427-2.972-2.914-1.206-5.133,1.691-2.124,3.28-.746,4.707.283,2.6,1.877,5.177,3.813,7.6,5.911,2.582,2.238,5.337,2.388,8.382,1.327,1.453-.509,2.4-1.005,1.65-2.936a39.973,39.973,0,0,1-1.359-5.9,13.343,13.343,0,0,1,5.77,2.677c3.883,3.108,5.162,7.01,3.634,11.7-.625,1.914-1.109,3.423,1.64,4.036,11.494,2.57,22.785,6.015,34.389,8.137a3.413,3.413,0,0,1,3,2.832c2.4,9.564,4.876,19.106,7.352,28.647.436,1.676.165,2.246-1.812,2.091-5.666-.446-10.869-2.355-15.981-4.605a7.893,7.893,0,0,0-5.567-.392c-11.01,2.912-22.23,3.294-33.531,2.476-.957-.068-1.919-.082-2.875-.121q-3.917-.571-7.832-1.148c4.411-6.18,8.767-12.4,13.27-18.51,1.24-1.684,1.349-2.478-.492-3.958-3.018-2.425-6.419-3.176-10.034-3.634-9.147-3.377-18.4-6.429-27.819-8.948-1.1-.371-2.207-.715-3.29-1.124-1.393-.526-3.406-.414-3.142-2.788C38.4,91.043,40.507,91.935,42.05,91.729Z" transform="translate(-0.14 43.443)" fill="#faae8c"/>
        <path id="Trazado_59" data-name="Trazado 59" d="M66.081,88.814c3.614.458,7.015,1.209,10.034,3.634,1.841,1.48,1.732,2.275.492,3.958-4.5,6.109-8.859,12.33-13.27,18.51A45.061,45.061,0,0,1,46.6,107.939c-3.147-2.231-4.787-5.092-3.844-9.091.785-3.326,1.466-6.674,2.192-10.014Z" transform="translate(6.134 61.19)" fill="#01a03a"/>
        <path id="Trazado_60" data-name="Trazado 60" d="M68.564,94.068l-21.133.019c-4.789-1.076-5.523-5.182-6.686-8.968C50.168,87.639,59.417,90.692,68.564,94.068Z" transform="translate(3.65 55.936)" fill="#052c59"/>
        <path id="Trazado_61" data-name="Trazado 61" d="M76.725,100.642c2.456-6.124,4.833-11.729,7.558-17.187a3.945,3.945,0,0,1,2.367-2q6.17-2.293,12.323-4.639c1.584-.6,3.135-.887,3.248,1.434.082,1.638,1.168,1.541,2.17,1.727,2.134.395,2.64,1.579,1.749,3.481-.167.354-.581.894-.475,1.03,2.7,3.474-1.09,4.45-2.56,4.8-2.342.562-3.7,1.977-5.438,3.253-4.491,3.3-9.152,6.373-14.978,6.909A60.18,60.18,0,0,0,76.725,100.642Z" transform="translate(54.829 43.517)" fill="#faae8c"/>
      </g>
      <g id="Grupo_63" data-name="Grupo 63" transform="translate(0 140.183)">
        <rect id="Rect치ngulo_27" data-name="Rect치ngulo 27" width="68.718" height="40.606" rx="2.597" fill="#60a8ff"/>
        <path id="Trazado_62" data-name="Trazado 62" d="M52.284,81.613,31.2,72.716V90.509Z" transform="translate(32.432 -61.31)" fill="#60a8ff"/>
        <g id="Grupo_62" data-name="Grupo 62" transform="translate(17.158 16.419)">
          <circle id="Elipse_7" data-name="Elipse 7" cx="3.884" cy="3.884" r="3.884" fill="#223a7a"/>
          <circle id="Elipse_8" data-name="Elipse 8" cx="3.884" cy="3.884" r="3.884" transform="translate(13.318)" fill="#223a7a"/>
          <circle id="Elipse_9" data-name="Elipse 9" cx="3.884" cy="3.884" r="3.884" transform="translate(26.635)" fill="#223a7a"/>
        </g>
      </g>
      <g id="Grupo_64" data-name="Grupo 64" transform="translate(191.043 0)">
        <path id="Trazado_63" data-name="Trazado 63" d="M196.219,10.138H95.507A11.709,11.709,0,0,0,83.8,21.848V69.625a11.711,11.711,0,0,0,11.71,11.712h9.028c.252,4.331-.368,10.772-3.982,19.011a50.6,50.6,0,0,0,21.833-19.011h73.833a11.713,11.713,0,0,0,11.712-11.712V21.848A11.711,11.711,0,0,0,196.219,10.138Z" transform="translate(-83.797 -10.138)" fill="#60a8ff"/>
        <path id="Trazado_64" data-name="Trazado 64" d="M143.262,22.457H93.309a2.487,2.487,0,0,1-2.485-2.485h0a2.486,2.486,0,0,1,2.485-2.485h49.952a2.486,2.486,0,0,1,2.485,2.485h0A2.487,2.487,0,0,1,143.262,22.457Z" transform="translate(-73.802 0.314)" fill="#fff"/>
        <path id="Trazado_65" data-name="Trazado 65" d="M179.08,27.3H92.348a1.525,1.525,0,0,1-1.524-1.524h0a1.523,1.523,0,0,1,1.524-1.521H179.08a1.521,1.521,0,0,1,1.521,1.521h0A1.523,1.523,0,0,1,179.08,27.3Z" transform="translate(-73.802 9.945)" fill="#d2e6ff"/>
        <path id="Trazado_66" data-name="Trazado 66" d="M179.08,30.79H92.348a1.525,1.525,0,0,1-1.524-1.524h0a1.523,1.523,0,0,1,1.524-1.521H179.08a1.521,1.521,0,0,1,1.521,1.521h0A1.523,1.523,0,0,1,179.08,30.79Z" transform="translate(-73.802 14.906)" fill="#d2e6ff"/>
        <path id="Trazado_67" data-name="Trazado 67" d="M160.161,34.507H92.348a1.523,1.523,0,0,1-1.524-1.521h0a1.523,1.523,0,0,1,1.524-1.521h67.813a1.521,1.521,0,0,1,1.521,1.521h0A1.521,1.521,0,0,1,160.161,34.507Z" transform="translate(-73.802 20.196)" fill="#d2e6ff"/>
        <path id="Trazado_68" data-name="Trazado 68" d="M142.428,22.457H118.6a2.486,2.486,0,0,1-2.485-2.485h0a2.484,2.484,0,0,1,2.485-2.485h23.829a2.484,2.484,0,0,1,2.483,2.485h0A2.485,2.485,0,0,1,142.428,22.457Z" transform="translate(-37.83 0.314)" fill="#fff"/>
      </g>
      <g id="Grupo_71" data-name="Grupo 71" transform="translate(217.138 124.642)">
        <rect id="Rect치ngulo_28" data-name="Rect치ngulo 28" width="46.184" height="33.269" rx="1.12" transform="translate(0 14.646)" fill="#fff"/>
        <g id="Grupo_68" data-name="Grupo 68" transform="translate(0.175 15.407)">
          <g id="Grupo_65" data-name="Grupo 65" transform="translate(0)">
            <path id="Trazado_69" data-name="Trazado 69" d="M117.84,88.8a1.01,1.01,0,0,1-.647-.233L95.011,70.244a1.017,1.017,0,0,1,1.3-1.567l21.516,17.768L138.789,68.2a1.018,1.018,0,0,1,1.337,1.536l-21.618,18.81A1.011,1.011,0,0,1,117.84,88.8Z" transform="translate(-94.641 -67.952)" fill="#6f7fa9"/>
          </g>
          <g id="Grupo_66" data-name="Grupo 66" transform="translate(0 13.404)">
            <path id="Trazado_70" data-name="Trazado 70" d="M95.66,91.829a1.017,1.017,0,0,1-.739-1.72L110.435,73.8a1.019,1.019,0,1,1,1.475,1.405L96.4,91.514A1.017,1.017,0,0,1,95.66,91.829Z" transform="translate(-94.641 -73.485)" fill="#6f7fa9"/>
          </g>
          <g id="Grupo_67" data-name="Grupo 67" transform="translate(28.349 13.625)">
            <path id="Trazado_71" data-name="Trazado 71" d="M122.812,91.1a1.018,1.018,0,0,1-.722-.3L106.64,75.312a1.018,1.018,0,0,1,1.444-1.437l15.45,15.491a1.017,1.017,0,0,1-.722,1.737Z" transform="translate(-106.344 -73.577)" fill="#6f7fa9"/>
          </g>
        </g>
        <g id="Grupo_70" data-name="Grupo 70" transform="translate(34.685)">
          <g id="Grupo_69" data-name="Grupo 69">
            <circle id="Elipse_10" data-name="Elipse 10" cx="13.617" cy="13.617" r="13.617" fill="#ff5f42"/>
          </g>
          <text id="_05" data-name="05" transform="translate(4.046 16.406)" fill="#fff" font-size="14" font-family="SegoeUI, Segoe UI"><tspan x="0" y="0">05</tspan></text>
        </g>
      </g>
    </g>
    <path id="Trazado_72" data-name="Trazado 72" d="M93.151,10.138h80.431a9.351,9.351,0,0,1,9.352,9.352V57.646A9.353,9.353,0,0,1,173.582,67h-7.21c-.2,3.459.294,8.6,3.18,15.183A40.409,40.409,0,0,1,152.116,67H93.151A9.355,9.355,0,0,1,83.8,57.646V19.49A9.353,9.353,0,0,1,93.151,10.138Z" transform="translate(1163.81 3285.098)" fill="#60a8ff"/>
    <text id="RUTAS" transform="translate(1299.391 3331.068)" fill="#fff" font-size="27" font-family="SegoeUI, Segoe UI"><tspan x="-31.542" y="0">PQRs</tspan></text>
  </g>
</svg>
