<?xml version="1.0" standalone="no"?><svg xmlns="http://www.w3.org/2000/svg" viewBox="0 0 1440 320"><path fill="#004f9f" fill-opacity="1" d="M0,32L17.1,58.7C34.3,85,69,139,103,154.7C137.1,171,171,149,206,128C240,107,274,85,309,85.3C342.9,85,377,107,411,117.3C445.7,128,480,128,514,128C548.6,128,583,128,617,149.3C651.4,171,686,213,720,245.3C754.3,277,789,299,823,272C857.1,245,891,171,926,128C960,85,994,75,1029,106.7C1062.9,139,1097,213,1131,229.3C1165.7,245,1200,203,1234,176C1268.6,149,1303,139,1337,138.7C1371.4,139,1406,149,1423,154.7L1440,160L1440,0L1422.9,0C1405.7,0,1371,0,1337,0C1302.9,0,1269,0,1234,0C1200,0,1166,0,1131,0C1097.1,0,1063,0,1029,0C994.3,0,960,0,926,0C891.4,0,857,0,823,0C788.6,0,754,0,720,0C685.7,0,651,0,617,0C582.9,0,549,0,514,0C480,0,446,0,411,0C377.1,0,343,0,309,0C274.3,0,240,0,206,0C171.4,0,137,0,103,0C68.6,0,34,0,17,0L0,0Z"></path></svg>